<svg width="20" height="20" viewBox="0 0 20 20" fill="none" xmlns="http://www.w3.org/2000/svg">
<path d="M19.8234 3.97363L13.7578 10.0002L19.8234 16.0267C19.933 15.7975 19.9996 15.5441 19.9996 15.2736V4.72672C19.9996 4.45613 19.933 4.20281 19.8234 3.97363Z" fill="#A3AED0"/>
<path d="M18.2414 2.96875H1.75699C1.48641 2.96875 1.23309 3.03527 1.00391 3.14492L8.75637 10.8583C9.44184 11.5438 10.5565 11.5438 11.242 10.8583L18.9945 3.14492C18.7653 3.03527 18.512 2.96875 18.2414 2.96875Z" fill="#A3AED0"/>
<path d="M0.176172 3.97363C0.0665234 4.20281 0 4.45613 0 4.72672V15.2736C0 15.5442 0.0665234 15.7975 0.176172 16.0267L6.24176 10.0002L0.176172 3.97363Z" fill="#A3AED0"/>
<path d="M12.9289 10.8286L12.0705 11.6869C10.9284 12.8291 9.06992 12.8291 7.92777 11.6869L7.06949 10.8286L1.00391 16.8551C1.23309 16.9648 1.48641 17.0313 1.75699 17.0313H18.2414C18.512 17.0313 18.7653 16.9648 18.9945 16.8551L12.9289 10.8286Z" fill="#A3AED0"/>
</svg>
