<svg width="19" height="20" viewBox="0 0 19 20" fill="none" xmlns="http://www.w3.org/2000/svg">
<path d="M16.5521 13.9201C15.3439 12.8867 14.1177 12.2608 12.9244 13.2926L12.2118 13.9162C11.6904 14.3689 10.7211 16.484 6.97316 12.1726C3.22604 7.86665 5.4559 7.19621 5.97804 6.74743L6.69453 6.12304C7.88165 5.08889 7.43365 3.78704 6.57746 2.44694L6.06077 1.63524C5.20068 0.29826 4.26409 -0.579789 3.07385 0.452796L2.43073 1.01475C1.90468 1.39797 0.434238 2.64363 0.0775551 5.01006C-0.351713 7.84948 1.00243 11.101 4.10487 14.6686C7.20341 18.2378 10.2372 20.0306 13.1109 19.9993C15.4992 19.9736 16.9416 18.692 17.3927 18.2261L18.0381 17.6633C19.2253 16.6315 18.4877 15.581 17.2787 14.5453L16.5521 13.9201Z" fill="#A3AED0"/>
</svg>
